<?xml version="1.0" standalone="no"?>
<!DOCTYPE svg PUBLIC "-//W3C//DTD SVG 20010904//EN"
 "http://www.w3.org/TR/2001/REC-SVG-20010904/DTD/svg10.dtd">
<svg version="1.0" xmlns="http://www.w3.org/2000/svg"
 width="170.000000pt" height="174.000000pt" viewBox="0 0 170.000000 174.000000"
 preserveAspectRatio="xMidYMid meet">

<g transform="translate(0.000000,174.000000) scale(0.100000,-0.100000)"
fill="#000000" stroke="none">
<path d="M486 1674 c-159 -38 -297 -165 -358 -329 -21 -57 -22 -76 -26 -436
-3 -316 -1 -386 13 -444 49 -213 232 -371 454 -391 237 -22 463 143 526 381
22 87 22 773 0 860 -23 85 -62 151 -131 221 -126 127 -308 179 -478 138z m206
-95 c146 -31 258 -137 304 -288 11 -36 14 -128 14 -417 0 -412 -1 -420 -68
-522 -163 -249 -541 -235 -687 26 -49 88 -55 138 -55 507 0 425 9 470 114 577
103 103 240 146 378 117z"/>
<path d="M565 1298 c-48 -26 -55 -47 -55 -166 l0 -114 31 -29 c59 -55 147 -27
163 52 11 56 6 169 -9 205 -10 23 -26 39 -49 49 -42 18 -54 18 -81 3z"/>
<path d="M1390 978 l0 -332 -28 27 -28 27 -34 -35 -34 -35 89 -90 90 -89 84
90 84 90 -34 35 -33 34 -28 -27 -28 -27 0 332 0 332 -50 0 -50 0 0 -332z"/>
</g>
</svg>
