<?xml version="1.0" standalone="no"?>
<!DOCTYPE svg PUBLIC "-//W3C//DTD SVG 20010904//EN"
 "http://www.w3.org/TR/2001/REC-SVG-20010904/DTD/svg10.dtd">
<svg version="1.0" xmlns="http://www.w3.org/2000/svg"
 width="1158.000000pt" height="186.000000pt" viewBox="0 0 1158.000000 186.000000"
 preserveAspectRatio="xMidYMid meet">

<g transform="translate(0.000000,186.000000) scale(0.100000,-0.100000)"
fill="#000000" stroke="none">
<path d="M10286 1714 c-159 -38 -297 -165 -358 -329 -21 -57 -22 -76 -26 -436
-3 -316 -1 -386 13 -444 49 -213 232 -371 454 -391 237 -22 463 143 526 381
22 87 22 773 0 860 -23 85 -62 151 -131 221 -126 127 -308 179 -478 138z m206
-95 c146 -31 258 -137 304 -288 11 -36 14 -128 14 -417 0 -412 -1 -420 -68
-522 -163 -249 -541 -235 -687 26 -49 88 -55 138 -55 507 0 425 9 470 114 577
103 103 240 146 378 117z"/>
<path d="M10365 1338 c-48 -26 -55 -47 -55 -166 l0 -114 31 -29 c59 -55 147
-27 163 52 11 56 6 169 -9 205 -10 23 -26 39 -49 49 -42 18 -54 18 -81 3z"/>
<path d="M11190 1018 l0 -332 -28 27 -28 27 -34 -35 -34 -35 89 -90 90 -89 84
90 84 90 -34 35 -33 34 -28 -27 -28 -27 0 332 0 332 -50 0 -50 0 0 -332z"/>
<path d="M185 1207 l-40 -23 -3 -116 -3 -116 47 -26 c40 -23 58 -26 135 -26
l89 0 0 -70 0 -70 -85 0 -85 0 0 35 0 35 -55 0 -55 0 0 -55 c0 -53 1 -55 43
-80 40 -23 54 -25 154 -25 100 0 115 2 157 26 l46 26 0 113 0 113 -44 26 c-40
23 -55 26 -140 26 l-96 0 0 70 0 70 79 0 80 0 3 -32 c3 -33 3 -33 58 -33 l55
0 3 51 3 52 -47 26 c-42 24 -57 26 -153 26 -91 0 -111 -3 -146 -23z"/>
<path d="M703 1204 l-43 -26 0 -228 0 -228 44 -26 c41 -24 54 -26 163 -26 103
0 123 3 161 22 42 23 42 23 42 80 l0 58 -55 0 -55 0 0 -35 0 -36 -92 3 -93 3
0 185 0 185 93 3 92 3 0 -36 0 -35 55 0 55 0 0 58 c0 57 0 57 -42 80 -38 19
-57 22 -163 22 -111 -1 -123 -3 -162 -26z"/>
<path d="M1200 950 l0 -280 55 0 55 0 0 105 0 105 38 0 c38 0 38 0 98 -105
l59 -105 58 0 c31 0 57 3 57 8 0 4 -25 49 -55 101 -30 51 -55 96 -55 100 0 3
20 17 45 31 l45 25 0 121 0 121 -49 26 c-47 26 -55 27 -200 27 l-151 0 0 -280z
m290 105 l0 -75 -90 0 -90 0 0 75 0 75 90 0 90 0 0 -75z"/>
<path d="M1773 1204 l-43 -26 0 -228 0 -228 44 -26 c42 -24 52 -26 177 -26
124 0 135 2 176 25 l43 26 0 229 0 229 -43 26 c-41 23 -52 25 -178 25 -126 -1
-137 -2 -176 -26z m287 -254 l0 -191 -107 3 -108 3 -3 175 c-1 96 0 180 2 187
4 9 34 13 111 13 l105 0 0 -190z"/>
<path d="M2310 950 l0 -280 151 0 150 0 -3 48 -3 47 -92 3 -93 3 0 229 0 230
-55 0 -55 0 0 -280z"/>
<path d="M2700 950 l0 -280 150 0 150 0 0 50 0 50 -95 0 -95 0 0 230 0 230
-55 0 -55 0 0 -280z"/>
<path d="M3435 1218 c-5 -13 -56 -157 -146 -410 l-48 -138 53 0 54 0 22 60 23
61 106 -3 106 -3 20 -57 20 -58 53 0 c39 0 53 3 50 13 -2 8 -46 134 -98 280
l-95 267 -58 0 c-37 0 -59 -4 -62 -12z m101 -238 l32 -90 -70 0 c-52 0 -69 3
-66 13 3 6 17 49 33 95 15 46 30 81 33 77 3 -3 21 -46 38 -95z"/>
<path d="M3840 950 l0 -280 55 0 55 0 2 176 3 177 118 -177 117 -176 50 0 50
0 0 280 0 280 -55 0 -55 0 -2 -176 -3 -177 -118 177 -117 176 -50 0 -50 0 0
-280z"/>
<path d="M4430 950 l0 -280 55 0 55 0 0 280 0 280 -55 0 -55 0 0 -280z"/>
<path d="M4680 950 l0 -280 55 0 55 0 1 183 0 182 63 -180 64 -180 53 0 54 0
62 180 62 180 0 -182 1 -183 55 0 55 0 0 280 0 280 -74 0 -74 0 -67 -200 c-37
-110 -70 -200 -73 -200 -4 0 -38 90 -76 200 l-68 200 -74 0 -74 0 0 -280z"/>
<path d="M5535 1218 c-5 -13 -56 -157 -146 -410 l-48 -138 53 0 54 0 22 60 23
61 106 -3 106 -3 20 -57 20 -58 53 0 c39 0 53 3 50 13 -2 8 -46 134 -98 280
l-95 267 -58 0 c-37 0 -59 -4 -62 -12z m101 -238 l32 -90 -70 0 c-52 0 -69 3
-66 13 3 6 17 49 33 95 15 46 30 81 33 77 3 -3 21 -46 38 -95z"/>
<path d="M5890 1180 l0 -50 75 0 75 0 0 -230 0 -230 55 0 55 0 0 230 0 229 73
3 72 3 3 48 3 47 -205 0 -206 0 0 -50z"/>
<path d="M6390 950 l0 -280 55 0 55 0 0 280 0 280 -55 0 -55 0 0 -280z"/>
<path d="M6678 1206 l-38 -21 0 -235 0 -235 43 -23 c37 -20 56 -22 171 -22
120 0 132 2 173 26 l43 25 -2 232 -3 231 -40 23 c-36 21 -52 23 -175 22 -119
-1 -140 -4 -172 -23z m282 -256 l0 -190 -105 0 -105 0 0 190 0 190 105 0 105
0 0 -190z"/>
<path d="M7210 950 l0 -280 55 0 55 0 0 183 0 182 122 -182 121 -183 54 0 53
0 0 280 0 280 -55 0 -55 0 -2 -182 -3 -181 -120 181 -120 182 -52 0 -53 0 0
-280z"/>
<path d="M7848 1206 l-38 -21 0 -117 0 -116 44 -26 c39 -23 56 -26 135 -26
l91 0 0 -70 0 -70 -84 0 -85 0 -3 33 c-3 31 -4 32 -56 35 l-53 3 3 -58 c3 -56
4 -58 43 -80 35 -20 54 -23 153 -23 103 0 116 2 152 25 l40 25 0 115 0 115
-40 25 c-35 22 -50 25 -135 25 l-95 0 0 70 0 70 79 0 80 0 3 -32 c3 -32 4 -33
56 -36 l52 -3 0 55 c0 54 -1 57 -40 81 -37 23 -48 25 -152 24 -96 -1 -119 -4
-150 -23z"/>
<path d="M8720 995 l0 -235 -65 0 -65 0 0 55 0 55 -55 0 -55 0 0 -75 0 -74 43
-26 c38 -22 55 -25 133 -25 73 0 97 4 132 22 l42 23 0 257 0 258 -55 0 -55 0
0 -235z"/>
<path d="M9013 1204 l-43 -26 0 -109 0 -109 47 -30 c43 -28 54 -30 140 -30
l93 0 0 -70 0 -70 -84 0 -85 0 -3 33 c-3 31 -4 32 -55 35 l-53 3 0 -58 0 -58
43 -23 c36 -19 57 -22 151 -22 99 0 113 2 153 26 l44 25 -3 117 -3 116 -35 20
c-27 16 -59 22 -135 26 l-100 5 0 65 0 65 83 3 82 3 0 -36 0 -35 55 0 55 0 0
55 c0 53 -1 55 -43 80 -40 23 -54 25 -153 25 -99 -1 -113 -3 -151 -26z"/>
</g>
</svg>
