<?xml version="1.0" standalone="no"?>
<!DOCTYPE svg PUBLIC "-//W3C//DTD SVG 20010904//EN"
 "http://www.w3.org/TR/2001/REC-SVG-20010904/DTD/svg10.dtd">
<svg version="1.0" xmlns="http://www.w3.org/2000/svg"
 width="1784.000000pt" height="846.000000pt" viewBox="0 0 1784.000000 846.000000"
 preserveAspectRatio="xMidYMid meet">

<g transform="translate(0.000000,846.000000) scale(0.100000,-0.100000)"
fill="#000000" stroke="none">
<path d="M0 4230 l0 -4230 8920 0 8920 0 0 4230 0 4230 -8920 0 -8920 0 0
-4230z m13355 1035 c91 -24 169 -71 235 -142 65 -69 99 -127 124 -212 14 -46
16 -114 16 -440 0 -214 -5 -405 -10 -428 -29 -124 -146 -271 -260 -326 -304
-146 -641 7 -725 330 -19 72 -22 749 -4 835 57 273 351 454 624 383z m755
-697 l0 -332 30 29 30 29 38 -37 37 -37 -90 -90 c-49 -50 -92 -89 -95 -88 -3
2 -43 43 -90 91 l-84 88 37 36 36 37 26 -24 25 -23 0 326 0 327 50 0 50 0 0
-332z m-10804 186 c45 -26 45 -27 42 -78 l-3 -51 -55 0 c-55 0 -55 0 -58 33
l-3 32 -80 0 -79 0 0 -65 0 -65 88 0 c78 0 92 -3 140 -30 l52 -30 0 -114 0
-114 -44 -26 c-41 -24 -54 -26 -158 -26 -99 0 -118 3 -153 23 -39 22 -40 25
-43 80 l-3 57 56 0 55 0 0 -35 0 -35 85 0 85 0 0 70 0 70 -91 0 c-79 0 -96 3
-135 26 l-44 26 0 116 0 117 38 21 c31 19 54 22 150 23 105 1 117 -1 158 -25z
m550 0 c43 -26 44 -27 44 -80 l0 -54 -60 0 -60 0 0 35 0 35 -90 0 -90 0 0
-190 0 -190 90 0 90 0 0 35 0 35 60 0 60 0 0 -54 c0 -53 -1 -54 -44 -80 -41
-24 -53 -26 -167 -26 -113 0 -126 2 -166 25 l-43 26 0 229 0 229 43 25 c39 24
51 26 165 26 115 0 127 -2 168 -26z m518 0 l46 -26 0 -122 0 -122 -42 -24
c-24 -13 -45 -24 -47 -26 -2 -2 24 -50 57 -108 l61 -106 -63 0 -62 0 -60 105
c-56 99 -61 105 -91 105 l-33 0 0 -105 0 -105 -60 0 -60 0 0 280 0 280 154 0
c146 0 156 -1 200 -26z m571 3 l40 -23 3 -231 2 -232 -43 -25 c-41 -24 -52
-26 -177 -26 -125 0 -136 2 -177 25 l-43 26 0 229 0 229 43 25 c39 24 50 26
177 26 122 0 139 -3 175 -23z m295 -207 l0 -230 95 0 95 0 0 -50 0 -50 -155 0
-155 0 0 280 0 280 60 0 60 0 0 -230z m390 0 l0 -230 95 0 95 0 0 -50 0 -50
-150 0 -150 0 0 280 0 280 55 0 55 0 0 -230z m843 -42 c53 -150 97 -276 97
-280 0 -5 -24 -8 -54 -8 l-54 0 -19 58 -20 57 -105 3 -106 3 -19 -58 -20 -58
-58 -3 c-44 -2 -56 0 -53 10 3 7 45 123 93 258 48 135 91 255 96 268 7 19 16
22 67 22 l58 0 97 -272z m404 96 l118 -177 3 177 2 176 60 0 60 0 0 -280 0
-280 -55 0 -55 0 -117 176 -118 177 -3 -177 -2 -176 -60 0 -60 0 0 280 0 280
55 0 55 0 117 -176z m483 -104 l0 -280 -55 0 -55 0 0 280 0 280 55 0 55 0 0
-280z m359 78 c36 -109 69 -198 72 -198 4 0 10 11 13 24 3 13 33 103 67 200
l61 176 74 0 74 0 0 -280 0 -280 -55 0 -55 0 -2 177 -3 176 -60 -176 -60 -177
-55 0 -55 0 -62 183 -61 182 -1 -182 -1 -183 -55 0 -55 0 0 280 0 281 77 -3
77 -3 65 -197z m854 -70 c53 -150 97 -276 97 -280 0 -5 -24 -8 -54 -8 l-54 0
-19 58 -20 57 -105 3 -106 3 -19 -58 -20 -58 -58 -3 c-44 -2 -56 0 -53 10 3 7
45 123 93 258 48 135 91 255 96 268 7 19 16 22 67 22 l58 0 97 -272z m547 222
l0 -50 -75 0 -75 0 0 -230 0 -230 -55 0 -55 0 0 230 0 229 -77 3 -78 3 -3 48
-3 47 210 0 211 0 0 -50z m200 -230 l0 -280 -55 0 -55 0 0 280 0 280 55 0 55
0 0 -280z m530 255 l40 -25 0 -230 0 -230 -40 -25 c-37 -24 -48 -25 -176 -25
-128 0 -138 1 -180 26 l-44 26 0 228 0 228 43 26 c40 24 50 25 180 26 130 0
140 -1 177 -25z m400 -150 c63 -96 118 -175 123 -175 4 0 7 79 7 175 l0 175
55 0 55 0 0 -280 0 -280 -53 0 -54 0 -121 183 -122 182 0 -182 0 -183 -55 0
-55 0 0 280 0 280 53 0 52 0 115 -175z m718 153 c42 -23 42 -23 42 -80 l0 -58
-55 0 -55 0 0 35 0 35 -80 0 -80 0 0 -65 0 -65 86 0 c75 0 92 -3 135 -27 l49
-28 0 -120 0 -120 -42 -23 c-37 -19 -58 -22 -153 -22 -95 0 -116 3 -152 22
-43 23 -43 23 -43 80 l0 58 55 0 55 0 0 -35 0 -35 85 0 85 0 0 70 0 70 -93 0
c-86 0 -97 2 -140 30 l-47 30 0 109 0 109 43 26 c38 23 52 25 152 26 95 0 116
-3 153 -22z m692 -232 l0 -254 -44 -26 c-39 -23 -55 -26 -138 -26 -78 0 -99 4
-133 23 l-40 23 -3 77 -3 77 56 0 55 0 0 -55 0 -55 65 0 65 0 0 235 0 235 60
0 60 0 0 -254z m475 231 c39 -22 40 -25 43 -80 l3 -57 -56 0 -55 0 0 35 0 35
-80 0 -80 0 0 -65 0 -65 88 0 c79 0 91 -3 135 -30 l47 -30 0 -115 0 -115 -40
-25 c-36 -23 -49 -25 -156 -25 -107 0 -119 2 -160 26 -45 26 -45 27 -42 78 l3
51 55 0 c55 0 55 0 58 -32 l3 -33 85 0 84 0 0 70 0 70 -91 0 c-80 0 -97 3
-140 27 l-49 26 0 113 0 113 43 25 c38 24 52 26 152 26 96 0 115 -3 150 -23z"/>
<path d="M13156 5170 c-165 -29 -298 -168 -326 -340 -13 -83 -13 -646 0 -725
28 -174 164 -307 340 -334 176 -28 343 64 422 233 l33 71 3 360 c2 244 0 379
-8 420 -40 207 -253 351 -464 315z m118 -281 c40 -19 56 -66 56 -169 0 -127
-26 -169 -106 -170 -59 0 -91 34 -100 107 -10 83 0 180 22 205 34 37 83 47
128 27z"/>
<path d="M4140 4605 l0 -75 85 0 85 0 0 75 0 75 -85 0 -85 0 0 -75z"/>
<path d="M4670 4500 l0 -191 103 3 102 3 0 185 0 185 -102 3 -103 3 0 -191z"/>
<path d="M6285 4548 c-15 -46 -30 -89 -33 -95 -3 -10 13 -13 62 -13 36 0 66 3
66 7 0 14 -52 168 -59 176 -4 4 -20 -30 -36 -75z"/>
<path d="M8385 4548 c-15 -46 -30 -89 -33 -95 -3 -10 13 -13 62 -13 36 0 66 3
66 7 0 14 -52 168 -59 176 -4 4 -20 -30 -36 -75z"/>
<path d="M9570 4500 l0 -190 105 0 105 0 0 190 0 190 -105 0 -105 0 0 -190z"/>
</g>
</svg>
